<?xml version="1.0" encoding="utf-8"?>
<!-- Generator: Adobe Illustrator 17.0.2, SVG Export Plug-In . SVG Version: 6.00 Build 0)  -->
<!DOCTYPE svg PUBLIC "-//W3C//DTD SVG 1.1//EN" "http://www.w3.org/Graphics/SVG/1.1/DTD/svg11.dtd">
<svg version="1.1" id="Capa_1" xmlns="http://www.w3.org/2000/svg" xmlns:xlink="http://www.w3.org/1999/xlink" x="0px" y="0px"
	 width="768.004px" height="768.004px" viewBox="128 0 768.004 768.004" enable-background="new 128 0 768.004 768.004"
	 xml:space="preserve">
<g>
	<path fill="#FFFFFF" d="M512.002,0C300.263,0,128,172.263,128,384.002s172.263,384.002,384.002,384.002
		s384.002-172.263,384.002-384.002S723.737,0,512.002,0z M512.002,702.175c-175.437,0-318.173-142.736-318.173-318.173
		S336.565,65.83,512.002,65.83s318.173,142.736,318.173,318.173S687.435,702.175,512.002,702.175z"/>
	<path fill="#FFFFFF" d="M660.587,235.435c-12.857-12.857-33.706-12.857-46.541,0L512.002,337.492L409.959,235.435
		c-12.857-12.857-33.684-12.857-46.541,0c-12.857,12.857-12.857,33.684,0,46.541l102.044,102.052L363.413,486.085
		c-12.857,12.857-12.857,33.684,0,46.541c6.426,6.427,14.85,9.644,23.273,9.644s16.855-3.213,23.273-9.644l102.044-102.052
		l102.044,102.052c6.426,6.427,14.85,9.644,23.273,9.644c8.423,0,16.842-3.213,23.273-9.644c12.857-12.857,12.857-33.684,0-46.541
		L558.544,384.033l102.044-102.052C673.444,269.123,673.444,248.292,660.587,235.435z"/>
</g>
</svg>
